<?xml version="1.0" encoding="UTF-8" standalone="no"?>
<!-- Created with Inkscape (http://www.inkscape.org/) -->

<svg
   xmlns:dc="http://purl.org/dc/elements/1.1/"
   xmlns:cc="http://creativecommons.org/ns#"
   xmlns:rdf="http://www.w3.org/1999/02/22-rdf-syntax-ns#"
   xmlns:svg="http://www.w3.org/2000/svg"
   xmlns="http://www.w3.org/2000/svg"
   xmlns:sodipodi="http://sodipodi.sourceforge.net/DTD/sodipodi-0.dtd"
   xmlns:inkscape="http://www.inkscape.org/namespaces/inkscape"
   width="713.44489"
   height="475.68146"
   id="svg12373"
   version="1.1"
   inkscape:version="0.48.4 r9939"
   sodipodi:docname="photons-to.svg">
  <defs
     id="defs12375">
    <marker
       inkscape:stockid="Arrow1Send"
       orient="auto"
       refY="0"
       refX="0"
       id="Arrow1Send"
       style="overflow:visible">
      <path
         id="path3798"
         d="M 0,0 5,-5 -12.5,0 5,5 0,0 z"
         style="fill-rule:evenodd;stroke:#000000;stroke-width:1pt"
         transform="matrix(-0.2,0,0,-0.2,-1.2,0)"
         inkscape:connector-curvature="0" />
    </marker>
    <marker
       inkscape:stockid="Arrow1Lend"
       orient="auto"
       refY="0"
       refX="0"
       id="Arrow1Lend"
       style="overflow:visible">
      <path
         id="path3786"
         d="M 0,0 5,-5 -12.5,0 5,5 0,0 z"
         style="fill-rule:evenodd;stroke:#000000;stroke-width:1pt"
         transform="matrix(-0.8,0,0,-0.8,-10,0)"
         inkscape:connector-curvature="0" />
    </marker>
  </defs>
  <sodipodi:namedview
     id="base"
     pagecolor="#ffffff"
     bordercolor="#666666"
     borderopacity="1.0"
     inkscape:pageopacity="0.0"
     inkscape:pageshadow="2"
     inkscape:zoom="0.7"
     inkscape:cx="232.61095"
     inkscape:cy="413.47867"
     inkscape:document-units="px"
     inkscape:current-layer="layer24"
     showgrid="false"
     fit-margin-top="0"
     fit-margin-left="0"
     fit-margin-right="0"
     fit-margin-bottom="0"
     inkscape:window-width="1918"
     inkscape:window-height="1173"
     inkscape:window-x="0"
     inkscape:window-y="25"
     inkscape:window-maximized="0"
     inkscape:object-paths="true"
     inkscape:snap-smooth-nodes="false"
     inkscape:object-nodes="true"
     inkscape:snap-grids="true"
     inkscape:snap-nodes="false">
    <inkscape:grid
       type="xygrid"
       id="grid4936"
       empspacing="5"
       visible="true"
       enabled="true"
       snapvisiblegridlinesonly="true"
       originx="-1.040039e-07px"
       originy="9.8671818px" />
  </sodipodi:namedview>
  <metadata
     id="metadata12378">
    <rdf:RDF>
      <cc:Work
         rdf:about="">
        <dc:format>image/svg+xml</dc:format>
        <dc:type
           rdf:resource="http://purl.org/dc/dcmitype/StillImage" />
        <dc:title />
      </cc:Work>
    </rdf:RDF>
  </metadata>
  <g
     inkscape:label="arrow"
     inkscape:groupmode="layer"
     id="layer1"
     transform="translate(90.147606,-130.71693)"
     style="display:inline">
    <path
       style="fill:none;stroke:#000000;stroke-width:15;stroke-linecap:butt;stroke-linejoin:miter;stroke-miterlimit:4;stroke-opacity:1;stroke-dasharray:none;marker-end:url(#Arrow1Send)"
       d="m 353.50731,299.70624 0,76.28394"
       id="path13189"
       inkscape:connector-curvature="0"
       sodipodi:nodetypes="cc" />
  </g>
  <g
     inkscape:groupmode="layer"
     id="layer23"
     inkscape:label="photons"
     transform="translate(-1.040039e-7,-30)">
    <g
       id="g4372"
       transform="translate(0,30)">
      <path
         sodipodi:nodetypes="ccc"
         inkscape:connector-curvature="0"
         id="path7976"
         d="m 140.65115,102.71693 0,121.42857 474.28571,0"
         style="fill:none;stroke:#000000;stroke-width:4;stroke-linecap:butt;stroke-linejoin:miter;stroke-miterlimit:4;stroke-opacity:1;stroke-dasharray:none"
         transform="translate(90.147606,-100.71693)" />
      <g
         transform="matrix(1.6749575,0,0,1.6749575,-17.095204,-244.50963)"
         id="g13182">
        <path
           transform="translate(-301.11174,-126.14954)"
           d="m 474.28571,320.93362 c 0,3.9449 -3.19797,7.14286 -7.14286,7.14286 -3.94489,0 -7.14285,-3.19796 -7.14285,-7.14286 0,-3.94489 3.19796,-7.14285 7.14285,-7.14285 3.94489,0 7.14286,3.19796 7.14286,7.14285 z"
           sodipodi:ry="7.1428571"
           sodipodi:rx="7.1428571"
           sodipodi:cy="320.93362"
           sodipodi:cx="467.14285"
           id="path8499"
           style="color:#000000;fill:#c00101;fill-opacity:1;fill-rule:nonzero;stroke:none;stroke-width:4;marker:none;visibility:visible;display:inline;overflow:visible;enable-background:accumulate"
           sodipodi:type="arc" />
        <path
           sodipodi:type="arc"
           style="color:#000000;fill:#c00101;fill-opacity:1;fill-rule:nonzero;stroke:none;stroke-width:4;marker:none;visibility:visible;display:inline;overflow:visible;enable-background:accumulate"
           id="path8505"
           sodipodi:cx="467.14285"
           sodipodi:cy="320.93362"
           sodipodi:rx="7.1428571"
           sodipodi:ry="7.1428571"
           d="m 474.28571,320.93362 c 0,3.9449 -3.19797,7.14286 -7.14286,7.14286 -3.94489,0 -7.14285,-3.19796 -7.14285,-7.14286 0,-3.94489 3.19796,-7.14285 7.14285,-7.14285 3.94489,0 7.14286,3.19796 7.14286,7.14285 z"
           transform="matrix(1.0000085,0,0,1.0000085,-196.37004,-126.1522)" />
        <path
           sodipodi:type="arc"
           style="color:#000000;fill:#c00101;fill-opacity:1;fill-rule:nonzero;stroke:none;stroke-width:4;marker:none;visibility:visible;display:inline;overflow:visible;enable-background:accumulate"
           id="path8515"
           sodipodi:cx="467.14285"
           sodipodi:cy="320.93362"
           sodipodi:rx="7.1428571"
           sodipodi:ry="7.1428571"
           d="m 474.28571,320.93362 c 0,3.9449 -3.19797,7.14286 -7.14286,7.14286 -3.94489,0 -7.14285,-3.19796 -7.14285,-7.14286 0,-3.94489 3.19796,-7.14285 7.14285,-7.14285 3.94489,0 7.14286,3.19796 7.14286,7.14285 z"
           transform="translate(-38.131301,-126.14954)" />
        <path
           transform="matrix(1.0000085,0,0,1.0000085,-181.01784,-126.1522)"
           d="m 474.28571,320.93362 c 0,3.9449 -3.19797,7.14286 -7.14286,7.14286 -3.94489,0 -7.14285,-3.19796 -7.14285,-7.14286 0,-3.94489 3.19796,-7.14285 7.14285,-7.14285 3.94489,0 7.14286,3.19796 7.14286,7.14285 z"
           sodipodi:ry="7.1428571"
           sodipodi:rx="7.1428571"
           sodipodi:cy="320.93362"
           sodipodi:cx="467.14285"
           id="path13638"
           style="color:#000000;fill:#c00101;fill-opacity:1;fill-rule:nonzero;stroke:none;stroke-width:4;marker:none;visibility:visible;display:inline;overflow:visible;enable-background:accumulate"
           sodipodi:type="arc" />
      </g>
      <text
         sodipodi:linespacing="125%"
         id="text8623"
         y="158.17921"
         x="608.52679"
         style="font-size:20px;font-style:normal;font-variant:normal;font-weight:normal;font-stretch:normal;text-align:start;line-height:125%;letter-spacing:0px;word-spacing:0px;writing-mode:lr-tb;text-anchor:start;fill:#000000;fill-opacity:1;stroke:none;font-family:Sans;-inkscape-font-specification:Sans"
         xml:space="preserve"><tspan
           style="font-size:48px;font-style:italic;font-variant:normal;font-weight:normal;font-stretch:normal;font-family:Liberation Serif;-inkscape-font-specification:Liberation Serif Italic"
           y="158.17921"
           x="608.52679"
           id="tspan8625"
           sodipodi:role="line">time</tspan></text>
      <g
         transform="matrix(1.597746,0,0,1.597746,-4.400253,-239.08436)"
         id="g13171">
        <path
           sodipodi:type="arc"
           style="color:#000000;fill:#45cf00;fill-opacity:1;fill-rule:nonzero;stroke:none;stroke-width:4;marker:none;visibility:visible;display:inline;overflow:visible;enable-background:accumulate"
           id="path8497"
           sodipodi:cx="467.14285"
           sodipodi:cy="320.93362"
           sodipodi:rx="7.1428571"
           sodipodi:ry="7.1428571"
           d="m 474.28571,320.93362 c 0,3.9449 -3.19797,7.14286 -7.14286,7.14286 -3.94489,0 -7.14285,-3.19796 -7.14285,-7.14286 0,-3.94489 3.19796,-7.14285 7.14285,-7.14285 3.94489,0 7.14286,3.19796 7.14286,7.14285 z"
           transform="translate(-301.82602,-154.00669)" />
        <path
           sodipodi:type="arc"
           style="color:#000000;fill:#45cf00;fill-opacity:1;fill-rule:nonzero;stroke:none;stroke-width:4;marker:none;visibility:visible;display:inline;overflow:visible;enable-background:accumulate"
           id="path8519"
           sodipodi:cx="467.14285"
           sodipodi:cy="320.93362"
           sodipodi:rx="7.1428571"
           sodipodi:ry="7.1428571"
           d="m 474.28571,320.93362 c 0,3.9449 -3.19797,7.14286 -7.14286,7.14286 -3.94489,0 -7.14285,-3.19796 -7.14285,-7.14286 0,-3.94489 3.19796,-7.14285 7.14285,-7.14285 3.94489,0 7.14286,3.19796 7.14286,7.14285 z"
           transform="translate(-152.54031,-154.00669)" />
        <path
           transform="translate(-60.040311,-154.00669)"
           d="m 474.28571,320.93362 c 0,3.9449 -3.19797,7.14286 -7.14286,7.14286 -3.94489,0 -7.14285,-3.19796 -7.14285,-7.14286 0,-3.94489 3.19796,-7.14285 7.14285,-7.14285 3.94489,0 7.14286,3.19796 7.14286,7.14285 z"
           sodipodi:ry="7.1428571"
           sodipodi:rx="7.1428571"
           sodipodi:cy="320.93362"
           sodipodi:cx="467.14285"
           id="path8521"
           style="color:#000000;fill:#45cf00;fill-opacity:1;fill-rule:nonzero;stroke:none;stroke-width:4;marker:none;visibility:visible;display:inline;overflow:visible;enable-background:accumulate"
           sodipodi:type="arc" />
        <path
           transform="translate(-183.6025,-154.00669)"
           d="m 474.28571,320.93362 c 0,3.9449 -3.19797,7.14286 -7.14286,7.14286 -3.94489,0 -7.14285,-3.19796 -7.14285,-7.14286 0,-3.94489 3.19796,-7.14285 7.14285,-7.14285 3.94489,0 7.14286,3.19796 7.14286,7.14285 z"
           sodipodi:ry="7.1428571"
           sodipodi:rx="7.1428571"
           sodipodi:cy="320.93362"
           sodipodi:cx="467.14285"
           id="path8615"
           style="color:#000000;fill:#45cf00;fill-opacity:1;fill-rule:nonzero;stroke:none;stroke-width:4;marker:none;visibility:visible;display:inline;overflow:visible;enable-background:accumulate"
           sodipodi:type="arc" />
        <path
           sodipodi:type="arc"
           style="color:#000000;fill:#45cf00;fill-opacity:1;fill-rule:nonzero;stroke:none;stroke-width:4;marker:none;visibility:visible;display:inline;overflow:visible;enable-background:accumulate"
           id="path8617"
           sodipodi:cx="467.14285"
           sodipodi:cy="320.93362"
           sodipodi:rx="7.1428571"
           sodipodi:ry="7.1428571"
           d="m 474.28571,320.93362 c 0,3.9449 -3.19797,7.14286 -7.14286,7.14286 -3.94489,0 -7.14285,-3.19796 -7.14285,-7.14286 0,-3.94489 3.19796,-7.14285 7.14285,-7.14285 3.94489,0 7.14286,3.19796 7.14286,7.14285 z"
           transform="translate(-248.25226,-154.00669)" />
        <path
           transform="translate(-213.65453,-154.00669)"
           d="m 474.28571,320.93362 c 0,3.9449 -3.19797,7.14286 -7.14286,7.14286 -3.94489,0 -7.14285,-3.19796 -7.14285,-7.14286 0,-3.94489 3.19796,-7.14285 7.14285,-7.14285 3.94489,0 7.14286,3.19796 7.14286,7.14285 z"
           sodipodi:ry="7.1428571"
           sodipodi:rx="7.1428571"
           sodipodi:cy="320.93362"
           sodipodi:cx="467.14285"
           id="path8619"
           style="color:#000000;fill:#45cf00;fill-opacity:1;fill-rule:nonzero;stroke:none;stroke-width:4;marker:none;visibility:visible;display:inline;overflow:visible;enable-background:accumulate"
           sodipodi:type="arc" />
        <path
           sodipodi:type="arc"
           style="color:#000000;fill:#45cf00;fill-opacity:1;fill-rule:nonzero;stroke:none;stroke-width:4;marker:none;visibility:visible;display:inline;overflow:visible;enable-background:accumulate"
           id="path8621"
           sodipodi:cx="467.14285"
           sodipodi:cy="320.93362"
           sodipodi:rx="7.1428571"
           sodipodi:ry="7.1428571"
           d="m 474.28571,320.93362 c 0,3.9449 -3.19797,7.14286 -7.14286,7.14286 -3.94489,0 -7.14285,-3.19796 -7.14285,-7.14286 0,-3.94489 3.19796,-7.14285 7.14285,-7.14285 3.94489,0 7.14286,3.19796 7.14286,7.14285 z"
           transform="translate(-78.799171,-154.00669)" />
        <path
           sodipodi:type="arc"
           style="color:#000000;fill:#45cf00;fill-opacity:1;fill-rule:nonzero;stroke:none;stroke-width:4;marker:none;visibility:visible;display:inline;overflow:visible;enable-background:accumulate"
           id="path8631"
           sodipodi:cx="467.14285"
           sodipodi:cy="320.93362"
           sodipodi:rx="7.1428571"
           sodipodi:ry="7.1428571"
           d="m 474.28571,320.93362 c 0,3.9449 -3.19797,7.14286 -7.14286,7.14286 -3.94489,0 -7.14285,-3.19796 -7.14285,-7.14286 0,-3.94489 3.19796,-7.14285 7.14285,-7.14285 3.94489,0 7.14286,3.19796 7.14286,7.14285 z"
           transform="translate(-34.099921,-154.00669)" />
        <path
           sodipodi:type="arc"
           style="color:#000000;fill:#45cf00;fill-opacity:1;fill-rule:nonzero;stroke:none;stroke-width:4;marker:none;visibility:visible;display:inline;overflow:visible;enable-background:accumulate"
           id="path11408"
           sodipodi:cx="467.14285"
           sodipodi:cy="320.93362"
           sodipodi:rx="7.1428571"
           sodipodi:ry="7.1428571"
           d="m 474.28571,320.93362 c 0,3.9449 -3.19797,7.14286 -7.14286,7.14286 -3.94489,0 -7.14285,-3.19796 -7.14285,-7.14286 0,-3.94489 3.19796,-7.14285 7.14285,-7.14285 3.94489,0 7.14286,3.19796 7.14286,7.14285 z"
           transform="translate(-171.98574,-154.00669)" />
      </g>
      <text
         xml:space="preserve"
         style="font-size:20px;font-style:normal;font-variant:normal;font-weight:normal;font-stretch:normal;text-align:start;line-height:125%;letter-spacing:0px;word-spacing:0px;writing-mode:lr-tb;text-anchor:start;fill:#000000;fill-opacity:1;stroke:none;font-family:Sans;-inkscape-font-specification:Sans"
         x="9.8077478"
         y="144.61041"
         id="text13156"
         sodipodi:linespacing="125%"
         transform="translate(90.147606,-100.71693)"><tspan
           sodipodi:role="line"
           id="tspan13158"
           x="9.8077478"
           y="144.61041"
           style="font-size:48px;font-style:italic;font-variant:normal;font-weight:normal;font-stretch:normal;font-family:Liberation Serif;-inkscape-font-specification:Liberation Serif Italic">donor</tspan></text>
      <text
         sodipodi:linespacing="125%"
         id="text13167"
         y="190.32471"
         x="-43.049397"
         style="font-size:20px;font-style:normal;font-variant:normal;font-weight:normal;font-stretch:normal;text-align:start;line-height:125%;letter-spacing:0px;word-spacing:0px;writing-mode:lr-tb;text-anchor:start;fill:#000000;fill-opacity:1;stroke:none;font-family:Sans;-inkscape-font-specification:Sans"
         xml:space="preserve"
         transform="translate(90.147606,-100.71693)"><tspan
           style="font-size:48px;font-style:italic;font-variant:normal;font-weight:normal;font-stretch:normal;font-family:Liberation Serif;-inkscape-font-specification:Liberation Serif Italic"
           y="190.32471"
           x="-43.049397"
           id="tspan13169"
           sodipodi:role="line">acceptor</tspan></text>
    </g>
  </g>
  <g
     inkscape:groupmode="layer"
     id="layer24"
     inkscape:label="distribution"
     transform="translate(-1.040039e-7,-30)"
     style="display:inline">
    <g
       style="display:inline"
       id="g4402">
      <path
         style="fill:none;stroke:#000000;stroke-width:4;stroke-linecap:butt;stroke-linejoin:miter;stroke-miterlimit:4;stroke-opacity:1;stroke-dasharray:none"
         d="m 140.65115,419.85979 0,134.28571 467.14285,0"
         id="path13136"
         inkscape:connector-curvature="0"
         sodipodi:nodetypes="ccc"
         transform="translate(90.147606,-100.71693)" />
      <path
         sodipodi:nodetypes="czzzc"
         inkscape:connector-curvature="0"
         id="path13142"
         d="m 144.28571,548.07647 c 58.95878,-58.55717 73.36661,-115.6821 156.86803,-112.26541 83.50142,3.41669 89.65157,110.83071 148.84626,112.26541 59.19469,1.4347 49.10675,8.76305 72.85714,-34.28572 23.75039,-43.04877 74.92314,5.6468 88.57143,37.14286"
         style="fill:none;stroke:#000000;stroke-width:1px;stroke-linecap:butt;stroke-linejoin:miter;stroke-opacity:1"
         transform="translate(90.147606,-100.71693)" />
      <text
         sodipodi:linespacing="125%"
         id="text13152"
         y="454.61041"
         x="-87.335106"
         style="font-size:20px;font-style:normal;font-variant:normal;font-weight:normal;font-stretch:normal;text-align:start;line-height:125%;letter-spacing:0px;word-spacing:0px;writing-mode:lr-tb;text-anchor:start;fill:#000000;fill-opacity:1;stroke:none;font-family:Sans;-inkscape-font-specification:Sans"
         xml:space="preserve"
         transform="translate(90.147606,-100.71693)"><tspan
           style="font-size:48px;font-style:italic;font-variant:normal;font-weight:normal;font-stretch:normal;font-family:Liberation Serif;-inkscape-font-specification:Liberation Serif Italic"
           y="454.61041"
           x="-87.335106"
           id="tspan13154"
           sodipodi:role="line">probability</tspan></text>
      <text
         xml:space="preserve"
         style="font-size:20px;font-style:normal;font-variant:normal;font-weight:normal;font-stretch:normal;text-align:start;line-height:125%;letter-spacing:0px;word-spacing:0px;writing-mode:lr-tb;text-anchor:start;fill:#000000;fill-opacity:1;stroke:none;font-family:Sans;-inkscape-font-specification:Sans"
         x="438.37918"
         y="596.039"
         id="text13148"
         sodipodi:linespacing="125%"
         transform="translate(90.147606,-100.71693)"><tspan
           sodipodi:role="line"
           id="tspan13150"
           x="438.37918"
           y="596.039"
           style="font-size:48px;font-style:italic;font-variant:normal;font-weight:normal;font-stretch:normal;font-family:Liberation Serif;-inkscape-font-specification:Liberation Serif Italic">distance</tspan></text>
      <text
         sodipodi:linespacing="125%"
         id="text13456"
         y="495.32208"
         x="374.52679"
         style="font-size:20px;font-style:normal;font-variant:normal;font-weight:normal;font-stretch:normal;text-align:start;line-height:125%;letter-spacing:0px;word-spacing:0px;writing-mode:lr-tb;text-anchor:start;fill:#000000;fill-opacity:1;stroke:none;font-family:Sans;-inkscape-font-specification:Sans"
         xml:space="preserve"><tspan
           style="font-size:48px;font-style:italic;font-variant:normal;font-weight:normal;font-stretch:normal;font-family:Liberation Serif;-inkscape-font-specification:Liberation Serif Italic"
           y="495.32208"
           x="374.52679"
           id="tspan13458"
           sodipodi:role="line">FRET efficiency</tspan></text>
    </g>
  </g>
  <g
     inkscape:groupmode="layer"
     id="layer25"
     inkscape:label="distance-label"
     transform="translate(-1.040039e-7,-30)" />
  <g
     inkscape:groupmode="layer"
     id="layer26"
     inkscape:label="fret-eff-label"
     style="display:inline"
     transform="translate(-1.040039e-7,-30)" />
</svg>
